<mxfile host="65bd71144e">
    <diagram id="IKv61fmJVMxKtXIGsCpo" name="Page-1">
        <mxGraphModel dx="1614" dy="1033" grid="1" gridSize="10" guides="1" tooltips="1" connect="1" arrows="1" fold="1" page="1" pageScale="1" pageWidth="850" pageHeight="1100" background="#ffffff" math="0" shadow="0">
            <root>
                <mxCell id="0"/>
                <mxCell id="1" parent="0"/>
                <mxCell id="42" value="" style="ellipse;whiteSpace=wrap;html=1;rotation=90;labelBackgroundColor=none;fillColor=#FFFFFF;strokeColor=#464749;fontColor=#464749;rounded=1;shadow=1;fontFamily=Arial Nova Light;" vertex="1" parent="1">
                    <mxGeometry x="400" y="430" width="110" height="75" as="geometry"/>
                </mxCell>
                <mxCell id="43" value="" style="rounded=1;whiteSpace=wrap;html=1;fontSize=16;labelBackgroundColor=none;fillColor=#D1D3D4;strokeColor=#464749;fontColor=#464749;shadow=1;fontFamily=Arial Nova Light;" vertex="1" parent="1">
                    <mxGeometry x="610" y="332.5" width="30" height="65" as="geometry"/>
                </mxCell>
                <mxCell id="44" value="" style="shape=trapezoid;perimeter=trapezoidPerimeter;whiteSpace=wrap;html=1;fixedSize=1;fontSize=16;rotation=-90;size=45;labelBackgroundColor=none;fillColor=#D1D3D4;strokeColor=#464749;fontColor=#464749;rounded=1;shadow=1;fontFamily=Arial Nova Light;" vertex="1" parent="1">
                    <mxGeometry x="590" y="337.5" width="155" height="55" as="geometry"/>
                </mxCell>
                <mxCell id="45" style="edgeStyle=orthogonalEdgeStyle;rounded=1;orthogonalLoop=1;jettySize=auto;html=1;labelBackgroundColor=none;strokeColor=#464749;fontColor=default;fontFamily=Arial Nova Light;entryX=0;entryY=0.5;entryDx=0;entryDy=0;exitX=1;exitY=0.5;exitDx=0;exitDy=0;" edge="1" parent="1" source="59" target="43">
                    <mxGeometry relative="1" as="geometry">
                        <mxPoint x="349.48" y="350.01199999999994" as="sourcePoint"/>
                        <mxPoint x="540" y="365" as="targetPoint"/>
                    </mxGeometry>
                </mxCell>
                <mxCell id="46" style="edgeStyle=orthogonalEdgeStyle;rounded=1;orthogonalLoop=1;jettySize=auto;html=1;endArrow=classic;endFill=1;strokeWidth=1;startArrow=none;startFill=0;labelBackgroundColor=none;strokeColor=#464749;fontColor=default;fontFamily=Arial Nova Light;entryX=0.5;entryY=1;entryDx=0;entryDy=0;entryPerimeter=0;exitX=1;exitY=0.5;exitDx=0;exitDy=0;" edge="1" parent="1" source="60" target="49">
                    <mxGeometry relative="1" as="geometry">
                        <Array as="points">
                            <mxPoint x="300" y="390"/>
                            <mxPoint x="520" y="390"/>
                            <mxPoint x="520" y="475"/>
                        </Array>
                        <mxPoint x="470" y="480" as="targetPoint"/>
                        <mxPoint x="340" y="400" as="sourcePoint"/>
                    </mxGeometry>
                </mxCell>
                <mxCell id="47" style="edgeStyle=orthogonalEdgeStyle;rounded=1;orthogonalLoop=1;jettySize=auto;html=1;exitX=1;exitY=0.5;exitDx=0;exitDy=0;entryX=0.5;entryY=1;entryDx=0;entryDy=0;startArrow=none;startFill=0;endArrow=classic;endFill=1;strokeWidth=1;labelBackgroundColor=none;strokeColor=#464749;fontColor=default;fontFamily=Arial Nova Light;" edge="1" parent="1" source="61" target="42">
                    <mxGeometry relative="1" as="geometry">
                        <mxPoint x="350" y="434.625" as="sourcePoint"/>
                    </mxGeometry>
                </mxCell>
                <mxCell id="48" style="edgeStyle=orthogonalEdgeStyle;rounded=1;orthogonalLoop=1;jettySize=auto;html=1;exitX=1;exitY=0.5;exitDx=0;exitDy=0;entryX=0;entryY=0.5;entryDx=0;entryDy=0;startArrow=none;startFill=0;endArrow=classic;endFill=1;strokeWidth=1;labelBackgroundColor=none;strokeColor=#464749;fontColor=default;fontFamily=Arial Nova Light;" edge="1" parent="1" source="58" target="53">
                    <mxGeometry relative="1" as="geometry">
                        <mxPoint x="348.17999999999984" y="319.66650000000004" as="sourcePoint"/>
                    </mxGeometry>
                </mxCell>
                <mxCell id="49" value="" style="shape=cylinder3;whiteSpace=wrap;html=1;boundedLbl=1;backgroundOutline=1;size=15;rotation=90;labelBackgroundColor=none;fillColor=#FFFFFF;strokeColor=#464749;fontColor=#464749;rounded=1;shadow=1;fontFamily=Arial Nova Light;" vertex="1" parent="1">
                    <mxGeometry x="570" y="420" width="90" height="110" as="geometry"/>
                </mxCell>
                <mxCell id="50" value="" style="shape=cylinder3;whiteSpace=wrap;html=1;boundedLbl=1;backgroundOutline=1;size=6;rotation=90;labelBackgroundColor=none;fillColor=#FFFFFF;strokeColor=#464749;fontColor=#464749;rounded=1;shadow=1;fontFamily=Arial Nova Light;" vertex="1" parent="1">
                    <mxGeometry x="670" y="450" width="20" height="50" as="geometry"/>
                </mxCell>
                <mxCell id="51" value="" style="shape=cylinder3;whiteSpace=wrap;html=1;boundedLbl=1;backgroundOutline=1;size=6.5;rotation=-180;labelBackgroundColor=none;fillColor=#FFFFFF;strokeColor=#464749;fontColor=#464749;rounded=1;shadow=1;fontFamily=Arial Nova Light;" vertex="1" parent="1">
                    <mxGeometry x="435" y="507.5" width="40" height="60" as="geometry"/>
                </mxCell>
                <mxCell id="52" value="" style="curved=1;endArrow=none;html=1;rounded=1;exitX=0.5;exitY=1;exitDx=0;exitDy=0;exitPerimeter=0;entryX=0.5;entryY=1;entryDx=0;entryDy=0;entryPerimeter=0;endFill=0;labelBackgroundColor=none;strokeColor=#464749;fontColor=default;shadow=0;fontFamily=Arial Nova Light;" edge="1" parent="1" source="51" target="51">
                    <mxGeometry width="50" height="50" relative="1" as="geometry">
                        <mxPoint x="290" y="550" as="sourcePoint"/>
                        <mxPoint x="340" y="500" as="targetPoint"/>
                        <Array as="points">
                            <mxPoint x="440" y="460"/>
                            <mxPoint x="450" y="470"/>
                            <mxPoint x="440" y="490"/>
                            <mxPoint x="470" y="490"/>
                            <mxPoint x="460" y="470"/>
                            <mxPoint x="470" y="460"/>
                            <mxPoint x="460" y="480"/>
                        </Array>
                    </mxGeometry>
                </mxCell>
                <mxCell id="53" value="" style="rounded=1;whiteSpace=wrap;html=1;labelBackgroundColor=none;fillColor=#D1D3D4;strokeColor=#464749;fontColor=#464749;shadow=1;fontFamily=Arial Nova Light;" vertex="1" parent="1">
                    <mxGeometry x="390" y="190" width="240" height="120" as="geometry"/>
                </mxCell>
                <mxCell id="54" value="" style="rounded=1;whiteSpace=wrap;html=1;labelBackgroundColor=none;fillColor=#FFFFFF;strokeColor=#464749;fontColor=#464749;shadow=0;fontFamily=Arial Nova Light;" vertex="1" parent="1">
                    <mxGeometry x="400" y="200" width="220" height="100" as="geometry"/>
                </mxCell>
                <mxCell id="55" value="" style="shape=trapezoid;perimeter=trapezoidPerimeter;whiteSpace=wrap;html=1;fixedSize=1;fontSize=16;rotation=0;size=20;labelBackgroundColor=none;fillColor=#D1D3D4;strokeColor=#464749;fontColor=#464749;rounded=1;shadow=1;fontFamily=Arial Nova Light;" vertex="1" parent="1">
                    <mxGeometry x="430" y="310" width="160" height="10" as="geometry"/>
                </mxCell>
                <mxCell id="56" value="Low Power FFD&lt;br&gt;XCORE Device" style="swimlane;whiteSpace=wrap;html=1;shadow=0;strokeColor=#464749;fontFamily=Arial Nova Light;fontColor=#464749;fillColor=#D1D3D4;rounded=1;fontStyle=1;startSize=40;swimlaneFillColor=default;" vertex="1" parent="1">
                    <mxGeometry x="120" y="240" width="200" height="220" as="geometry"/>
                </mxCell>
                <mxCell id="57" value="User Developed Control" style="swimlane;html=1;fontStyle=0;childLayout=stackLayout;horizontal=1;startSize=26;fillColor=#44BBF1;horizontalStack=0;resizeParent=1;resizeLast=0;collapsible=1;marginBottom=0;swimlaneFillColor=#ffffff;align=center;rounded=1;shadow=0;comic=0;labelBackgroundColor=none;strokeWidth=1;fontFamily=Arial Nova Light;fontSize=12;strokeColor=#1399DB;fontColor=#464749;" vertex="1" parent="56">
                    <mxGeometry x="20" y="60" width="160" height="140" as="geometry"/>
                </mxCell>
                <mxCell id="58" value="Television" style="text;html=1;strokeColor=none;fillColor=none;spacingLeft=4;spacingRight=4;whiteSpace=wrap;overflow=hidden;rotatable=0;points=[[0,0.5],[1,0.5]];portConstraint=eastwest;fontFamily=Arial Nova Light;fontStyle=0;align=center;" vertex="1" parent="57">
                    <mxGeometry y="26" width="160" height="26" as="geometry"/>
                </mxCell>
                <mxCell id="59" value="Audio" style="text;html=1;strokeColor=none;fillColor=none;spacingLeft=4;spacingRight=4;whiteSpace=wrap;overflow=hidden;rotatable=0;points=[[0,0.5],[1,0.5]];portConstraint=eastwest;fontFamily=Arial Nova Light;fontStyle=0;align=center;" vertex="1" parent="57">
                    <mxGeometry y="52" width="160" height="26" as="geometry"/>
                </mxCell>
                <mxCell id="60" value="Motor/Actuator" style="text;html=1;strokeColor=none;fillColor=none;spacingLeft=4;spacingRight=4;whiteSpace=wrap;overflow=hidden;rotatable=0;points=[[0,0.5],[1,0.5]];portConstraint=eastwest;fontFamily=Arial Nova Light;fontStyle=0;align=center;" vertex="1" parent="57">
                    <mxGeometry y="78" width="160" height="26" as="geometry"/>
                </mxCell>
                <mxCell id="61" value="Lighting" style="text;html=1;strokeColor=none;fillColor=none;spacingLeft=4;spacingRight=4;whiteSpace=wrap;overflow=hidden;rotatable=0;points=[[0,0.5],[1,0.5]];portConstraint=eastwest;fontFamily=Arial Nova Light;fontStyle=0;align=center;" vertex="1" parent="57">
                    <mxGeometry y="104" width="160" height="26" as="geometry"/>
                </mxCell>
            </root>
        </mxGraphModel>
    </diagram>
</mxfile>
